# This file uses centimeters as units for non-parametric coordinates.

mtllib flower3.mtl
g default
v 0.102620 1.127803 1.224497
v 0.071102 0.462624 0.240793
v 0.165187 0.462848 0.242559
v 0.119227 0.073325 0.118930
v 0.006536 1.037591 0.827088
v 0.109481 0.885522 0.812882
v 0.212040 1.038875 0.834294
v 0.031701 0.904229 0.509138
v 0.114888 0.752032 0.494220
v 0.196212 0.905257 0.514906
v -0.757915 0.444658 0.164259
v 0.059223 0.407819 0.083114
v 0.063035 0.408133 0.161304
v 0.119227 0.073325 0.118930
v -0.375472 0.855759 0.058829
v -0.374822 0.728729 0.144511
v -0.369813 0.857469 0.229798
v -0.115035 0.801620 0.062287
v -0.114914 0.674419 0.131534
v -0.110504 0.802990 0.199153
v -0.236120 0.302515 0.528324
v 0.077615 0.279778 0.130276
v 0.114013 0.279972 0.162054
v 0.119227 0.073325 0.118930
v -0.119273 0.556251 0.313151
v -0.080900 0.477846 0.349543
v -0.040836 0.557306 0.383826
v -0.006244 0.522836 0.198838
v 0.024596 0.444326 0.228427
v 0.056548 0.523681 0.255415
v 0.050429 0.197638 0.118143
v 0.063624 0.197638 0.122972
v 0.068454 0.197638 0.109776
v 0.055258 0.197638 0.104947
v 0.302559 1.456444 0.336009
v 0.315754 1.456444 0.340837
v 0.320583 1.456444 0.327642
v 0.307387 1.456444 0.322813
v -0.009019 0.783021 0.304447
v -0.004190 0.783021 0.291252
v 0.009007 0.783021 0.296081
v 0.004176 0.783021 0.309277
v 0.078913 1.092933 0.332532
v 0.083741 1.092933 0.319336
v 0.096938 1.092933 0.324164
v 0.092109 1.092933 0.337360
v 0.294682 1.423656 0.295156
v 0.358052 1.461647 0.339544
v 0.299712 1.466070 0.370025
v 0.334750 1.470756 0.365014
v 0.329720 1.428342 0.290148
v 0.271379 1.432764 0.320628
v 0.355968 1.444079 0.308534
v 0.314350 1.462203 0.325455
v 0.273464 1.450333 0.351639
v 0.560579 1.468169 0.230601
v 0.351823 1.474219 0.361925
v 0.321855 1.425731 0.295369
v 0.317524 1.449417 0.336686
v 0.540925 1.497294 0.312441
v 0.502574 1.464634 0.251660
v 0.491119 1.411936 0.193903
v 0.480980 1.501424 0.347120
v 0.440144 1.461847 0.276014
v 0.422960 1.405949 0.215607
v 0.428426 1.609970 0.517648
v 0.289565 1.464338 0.374426
v 0.363954 1.457538 0.328612
v 0.317524 1.449417 0.336686
v 0.347180 1.573036 0.528070
v 0.404153 1.575804 0.472215
v 0.479705 1.562845 0.449642
v 0.307595 1.535917 0.484844
v 0.376132 1.538796 0.423804
v 0.454598 1.523124 0.395379
v 0.076219 1.470994 0.447101
v 0.280093 1.425853 0.314956
v 0.317775 1.474150 0.377616
v 0.317524 1.449417 0.336686
v 0.094831 1.413379 0.380250
v 0.132389 1.471159 0.421303
v 0.158345 1.498581 0.492163
v 0.151434 1.405509 0.340915
v 0.192654 1.470286 0.391879
v 0.224688 1.500669 0.464833
v 0.194532 1.323295 0.136491
v 0.345057 1.434250 0.298736
v 0.271125 1.441570 0.345201
v 0.317523 1.449417 0.336686
v 0.285467 1.325485 0.145894
v 0.219401 1.357441 0.181616
v 0.153713 1.336594 0.225489
v 0.325643 1.362495 0.188666
v 0.248058 1.394417 0.229676
v 0.179526 1.376313 0.279422
v 0.067595 0.166766 0.143675
v 0.056927 0.166766 0.154343
v 0.067595 0.166766 0.165011
v 0.078263 0.166766 0.154343
v 0.067595 1.727997 0.143675
v 0.056927 1.727997 0.154343
v 0.067595 1.727997 0.165011
v 0.078263 1.727997 0.154343
v 0.067595 1.004931 0.019240
v 0.078263 1.004931 0.029909
v 0.067595 1.004931 0.040577
v 0.056927 1.004931 0.029909
v 0.067595 1.337689 0.047037
v 0.078263 1.337689 0.057706
v 0.067595 1.337689 0.068374
v 0.056927 1.337689 0.057706
v 0.110943 1.692791 0.154470
v 0.039065 1.733583 0.196121
v 0.035754 1.738332 0.125525
v 0.024794 1.743364 0.161913
v 0.099982 1.697823 0.190859
v 0.096670 1.702571 0.120263
v 0.070210 1.714720 0.208111
v 0.072544 1.734179 0.159928
v 0.065527 1.721435 0.108274
v 0.053609 1.740586 0.442615
v 0.020084 1.747081 0.179936
v 0.098452 1.695020 0.180840
v 0.060170 1.720451 0.157943
v -0.017211 1.771858 0.386477
v 0.059322 1.736790 0.376602
v 0.120749 1.680207 0.391558
v -0.023885 1.776292 0.312417
v 0.063827 1.733798 0.304791
v 0.130425 1.673779 0.315365
v -0.166205 1.892840 0.184145
v 0.036055 1.736472 0.113653
v 0.047045 1.729171 0.206812
v 0.060170 1.720451 0.157943
v -0.139627 1.853183 0.100307
v -0.110985 1.856155 0.181044
v -0.123157 1.842241 0.264830
v -0.079634 1.813328 0.081296
v -0.051170 1.816419 0.175638
v -0.058958 1.799592 0.264907
v 0.061723 1.743619 -0.126981
v 0.098255 1.695150 0.131312
v 0.020195 1.747008 0.139686
v 0.060170 1.720451 0.157943
v 0.118417 1.681757 -0.078634
v 0.061456 1.743796 -0.060614
v -0.019290 1.773239 -0.067370
v 0.131137 1.673307 -0.005725
v 0.062867 1.742859 0.011380
v -0.022664 1.775481 0.009597
v 0.310743 1.585032 0.128663
v 0.084683 1.704166 0.201915
v 0.072853 1.712026 0.108905
v 0.060170 1.720451 0.157943
v 0.260476 1.587383 0.212975
v 0.255554 1.621696 0.132483
v 0.242520 1.599312 0.048676
v 0.200658 1.627122 0.232765
v 0.195791 1.661397 0.138666
v 0.178326 1.641958 0.049434
vt 0.000000 0.750000
vt 0.500000 0.750000
vt 0.500000 1.000000
vt 0.000000 1.000000
vt 1.000000 0.750000
vt 1.000000 1.000000
vt 0.250000 0.000000
vt 0.500000 0.500000
vt 0.000000 0.500000
vt 1.000000 0.500000
vt 0.000000 0.750000
vt 0.500000 0.750000
vt 0.500000 1.000000
vt 0.000000 1.000000
vt 1.000000 0.750000
vt 1.000000 1.000000
vt 0.250000 0.000000
vt 0.500000 0.500000
vt 0.000000 0.500000
vt 1.000000 0.500000
vt 0.000000 0.750000
vt 0.500000 0.750000
vt 0.500000 1.000000
vt 0.000000 1.000000
vt 1.000000 0.750000
vt 1.000000 1.000000
vt 0.250000 0.000000
vt 0.500000 0.500000
vt 0.000000 0.500000
vt 1.000000 0.500000
vt 0.375000 0.312500
vt 0.437500 0.312500
vt 0.437500 0.500470
vt 0.375000 0.500470
vt 0.500000 0.312500
vt 0.500000 0.500470
vt 0.562500 0.312500
vt 0.562500 0.500470
vt 0.625000 0.312500
vt 0.625000 0.500470
vt 0.500000 1.000000
vt 0.343750 0.843750
vt 0.500000 0.687500
vt 0.656250 0.843750
vt 0.625000 0.594455
vt 0.562500 0.594455
vt 0.500000 0.594455
vt 0.437500 0.594455
vt 0.375000 0.594455
vt 0.625000 0.688440
vt 0.562500 0.688440
vt 0.500000 0.688440
vt 0.437500 0.688440
vt 0.375000 0.688440
vt 0.000000 0.750000
vt 0.500000 0.750000
vt 0.500000 1.000000
vt 0.000000 1.000000
vt 1.000000 0.750000
vt 1.000000 1.000000
vt 0.250000 0.000000
vt 1.000000 0.500000
vt 0.000000 0.500000
vt 0.000000 0.750000
vt 0.500000 0.750000
vt 0.500000 1.000000
vt 0.000000 1.000000
vt 1.000000 0.750000
vt 1.000000 1.000000
vt 0.250000 0.000000
vt 0.500000 0.500000
vt 0.000000 0.500000
vt 1.000000 0.500000
vt 0.000000 0.750000
vt 0.500000 0.750000
vt 0.500000 1.000000
vt 0.000000 1.000000
vt 1.000000 0.750000
vt 1.000000 1.000000
vt 0.250000 0.000000
vt 0.500000 0.500000
vt 0.000000 0.500000
vt 1.000000 0.500000
vt 0.000000 0.750000
vt 0.500000 0.750000
vt 0.500000 1.000000
vt 0.000000 1.000000
vt 1.000000 0.750000
vt 1.000000 1.000000
vt 0.250000 0.000000
vt 0.500000 0.500000
vt 0.000000 0.500000
vt 1.000000 0.500000
vt 0.000000 0.750000
vt 0.500000 0.750000
vt 0.500000 1.000000
vt 0.000000 1.000000
vt 1.000000 0.750000
vt 1.000000 1.000000
vt 0.250000 0.000000
vt 0.500000 0.500000
vt 0.000000 0.500000
vt 1.000000 0.500000
vt 0.375000 0.312500
vt 0.437500 0.312500
vt 0.437500 0.500470
vt 0.375000 0.500470
vt 0.500000 0.312500
vt 0.500000 0.500470
vt 0.562500 0.312500
vt 0.562500 0.500470
vt 0.625000 0.312500
vt 0.625000 0.500470
vt 0.500000 1.000000
vt 0.343750 0.843750
vt 0.500000 0.687500
vt 0.656250 0.843750
vt 0.625000 0.594455
vt 0.562500 0.594455
vt 0.500000 0.594455
vt 0.437500 0.594455
vt 0.375000 0.594455
vt 0.625000 0.688440
vt 0.562500 0.688440
vt 0.500000 0.688440
vt 0.437500 0.688440
vt 0.375000 0.688440
vt 0.000000 0.750000
vt 0.500000 0.750000
vt 0.500000 1.000000
vt 0.000000 1.000000
vt 1.000000 0.750000
vt 1.000000 1.000000
vt 0.250000 0.000000
vt 1.000000 0.500000
vt 0.000000 0.500000
vt 0.000000 0.750000
vt 0.500000 0.750000
vt 0.500000 1.000000
vt 0.000000 1.000000
vt 1.000000 0.750000
vt 1.000000 1.000000
vt 0.250000 0.000000
vt 0.500000 0.500000
vt 0.000000 0.500000
vt 1.000000 0.500000
vt 0.000000 0.750000
vt 0.500000 0.750000
vt 0.500000 1.000000
vt 0.000000 1.000000
vt 1.000000 0.750000
vt 1.000000 1.000000
vt 0.250000 0.000000
vt 0.500000 0.500000
vt 0.000000 0.500000
vt 1.000000 0.500000
vt 0.000000 0.750000
vt 0.500000 0.750000
vt 0.500000 1.000000
vt 0.000000 1.000000
vt 1.000000 0.750000
vt 1.000000 1.000000
vt 0.250000 0.000000
vt 0.500000 0.500000
vt 0.000000 0.500000
vt 1.000000 0.500000
vt 0.000000 0.750000
vt 0.500000 0.750000
vt 0.500000 1.000000
vt 0.000000 1.000000
vt 1.000000 0.750000
vt 1.000000 1.000000
vt 0.250000 0.000000
vt 0.500000 0.500000
vt 0.000000 0.500000
vt 1.000000 0.500000
vn 0.800340 0.321854 -0.505831
vn 0.800340 0.321854 -0.505831
vn 0.800340 0.321854 -0.505831
vn 0.800340 0.321854 -0.505831
vn -0.783655 0.324608 -0.529636
vn -0.783655 0.324608 -0.529636
vn -0.783655 0.324608 -0.529636
vn -0.783655 0.324608 -0.529636
vn 0.772894 0.552386 -0.312258
vn 0.772894 0.552386 -0.312258
vn 0.772894 0.552386 -0.312258
vn -0.759297 0.555196 -0.339450
vn -0.759297 0.555196 -0.339450
vn -0.759297 0.555196 -0.339450
vn 0.831252 0.525784 -0.180477
vn 0.831252 0.525784 -0.180477
vn 0.831252 0.525784 -0.180477
vn 0.831252 0.525784 -0.180477
vn -0.826479 0.523981 -0.205856
vn -0.826479 0.523981 -0.205856
vn -0.826479 0.523981 -0.205856
vn -0.826479 0.523981 -0.205856
vn 0.596475 0.251151 0.762326
vn 0.596475 0.251151 0.762326
vn 0.596475 0.251151 0.762326
vn 0.596475 0.251151 0.762326
vn 0.514319 0.252056 -0.819722
vn 0.514319 0.252056 -0.819722
vn 0.514319 0.252056 -0.819722
vn 0.514319 0.252056 -0.819722
vn -0.347750 0.523062 0.778123
vn -0.347750 0.523062 0.778123
vn -0.347750 0.523062 0.778123
vn -0.418857 0.512766 -0.749420
vn -0.418857 0.512766 -0.749420
vn -0.418857 0.512766 -0.749419
vn 0.123188 0.516694 0.847261
vn 0.123188 0.516694 0.847261
vn 0.123188 0.516694 0.847261
vn 0.123188 0.516694 0.847262
vn 0.034547 0.509615 -0.859709
vn 0.034547 0.509615 -0.859709
vn 0.034547 0.509615 -0.859709
vn 0.034547 0.509615 -0.859709
vn 0.962865 0.251152 0.099062
vn 0.962865 0.251152 0.099062
vn 0.962865 0.251152 0.099062
vn 0.962865 0.251152 0.099062
vn -0.233750 0.252058 -0.939057
vn -0.233750 0.252058 -0.939057
vn -0.233750 0.252058 -0.939057
vn -0.233750 0.252058 -0.939057
vn 0.319332 0.523060 0.790212
vn 0.319332 0.523060 0.790212
vn 0.319332 0.523060 0.790212
vn -0.830373 0.512761 -0.218074
vn -0.830373 0.512761 -0.218074
vn -0.830373 0.512761 -0.218074
vn 0.695779 0.516688 0.498925
vn 0.695779 0.516688 0.498925
vn 0.695779 0.516688 0.498925
vn 0.695779 0.516688 0.498925
vn -0.595340 0.509613 -0.621180
vn -0.595340 0.509614 -0.621180
vn -0.595340 0.509614 -0.621180
vn -0.595340 0.509614 -0.621180
vn -0.325994 -0.316606 0.890779
vn -0.325994 -0.316606 0.890779
vn -0.337016 -0.195814 0.920911
vn -0.334929 -0.224114 0.915203
vn 0.938979 -0.014026 0.343689
vn 0.938979 -0.014026 0.343689
vn 0.934315 -0.100526 0.341979
vn 0.931605 -0.125860 0.340986
vn 0.325963 0.316607 -0.890791
vn 0.325963 0.316607 -0.890791
vn 0.334888 0.224118 -0.915216
vn 0.336973 0.195824 -0.920925
vn -0.939012 0.013994 -0.343599
vn -0.939012 0.013994 -0.343599
vn -0.931639 0.125840 -0.340901
vn -0.934349 0.100500 -0.341893
vn 0.000000 1.000000 -0.000005
vn 0.000000 1.000000 -0.000005
vn 0.000000 1.000000 -0.000005
vn 0.000000 1.000000 -0.000005
vn -0.859002 0.404131 -0.314315
vn -0.853665 0.416758 -0.312362
vn 0.342287 -0.087889 -0.935476
vn 0.340440 -0.135888 -0.930395
vn 0.853643 -0.416748 0.312432
vn 0.858981 -0.404119 0.314387
vn -0.340455 0.135892 0.930389
vn -0.342320 0.087899 0.935463
vn -0.811983 0.502406 -0.297104
vn -0.811984 0.502406 -0.297104
vn 0.336809 -0.198412 -0.920431
vn 0.336809 -0.198412 -0.920431
vn 0.811967 -0.502395 0.297169
vn 0.811967 -0.502395 0.297169
vn -0.336801 0.198408 0.920435
vn -0.336801 0.198408 0.920435
vn 0.134586 0.914555 -0.381413
vn 0.134586 0.914555 -0.381413
vn 0.134586 0.914555 -0.381413
vn 0.134586 0.914555 -0.381413
vn -0.277189 0.945105 -0.173039
vn -0.277189 0.945105 -0.173039
vn -0.277189 0.945105 -0.173039
vn -0.277189 0.945105 -0.173039
vn -0.444909 0.733642 -0.513639
vn -0.444909 0.733642 -0.513639
vn -0.444909 0.733642 -0.513639
vn -0.444910 0.733642 -0.513639
vn -0.079434 0.701955 -0.707778
vn -0.079434 0.701955 -0.707778
vn -0.079434 0.701955 -0.707778
vn -0.079434 0.701955 -0.707778
vn -0.256331 0.884052 -0.390827
vn -0.256331 0.884052 -0.390827
vn -0.256331 0.884052 -0.390827
vn -0.256331 0.884052 -0.390827
vn -0.324541 0.764441 -0.557048
vn -0.324541 0.764441 -0.557048
vn -0.324541 0.764441 -0.557048
vn -0.324541 0.764441 -0.557048
vn -0.189521 0.909784 -0.369290
vn -0.189521 0.909784 -0.369290
vn -0.189521 0.909784 -0.369290
vn -0.269771 0.737371 -0.619279
vn -0.269771 0.737371 -0.619279
vn -0.269771 0.737371 -0.619280
vn -0.177545 0.904133 -0.388614
vn -0.177545 0.904133 -0.388614
vn -0.177545 0.904133 -0.388614
vn -0.177545 0.904133 -0.388614
vn -0.267103 0.740924 -0.616188
vn -0.267103 0.740925 -0.616188
vn -0.267103 0.740924 -0.616188
vn -0.267103 0.740924 -0.616188
vn -0.396501 0.780989 -0.482538
vn -0.396501 0.780989 -0.482538
vn -0.396501 0.780989 -0.482538
vn -0.396501 0.780989 -0.482539
vn -0.138815 0.761915 -0.632627
vn -0.138815 0.761915 -0.632627
vn -0.138815 0.761915 -0.632627
vn -0.138815 0.761915 -0.632627
vn -0.422077 0.818408 -0.389948
vn -0.422077 0.818408 -0.389948
vn -0.422077 0.818408 -0.389948
vn -0.037036 0.808086 -0.587899
vn -0.037036 0.808086 -0.587899
vn -0.037036 0.808086 -0.587899
vn -0.395000 0.834678 -0.383781
vn -0.395000 0.834678 -0.383781
vn -0.395000 0.834678 -0.383781
vn -0.395000 0.834678 -0.383781
vn -0.042605 0.810751 -0.583839
vn -0.042605 0.810751 -0.583839
vn -0.042605 0.810751 -0.583839
vn -0.042605 0.810751 -0.583839
vn -0.208473 0.725411 -0.655986
vn -0.208473 0.725411 -0.655986
vn -0.208473 0.725411 -0.655986
vn -0.208473 0.725411 -0.655986
vn -0.075506 0.905781 -0.416965
vn -0.075506 0.905781 -0.416965
vn -0.075506 0.905781 -0.416965
vn -0.075506 0.905781 -0.416965
vn -0.309150 0.676131 -0.668785
vn -0.309150 0.676131 -0.668785
vn -0.309150 0.676131 -0.668785
vn -0.145295 0.939459 -0.310331
vn -0.145295 0.939459 -0.310331
vn -0.145295 0.939459 -0.310331
vn -0.326519 0.692710 -0.643070
vn -0.326519 0.692710 -0.643070
vn -0.326519 0.692710 -0.643070
vn -0.326519 0.692709 -0.643070
vn -0.150559 0.936796 -0.315825
vn -0.150559 0.936796 -0.315825
vn -0.150559 0.936796 -0.315825
vn -0.150559 0.936796 -0.315825
vn 0.006168 0.862444 -0.506115
vn 0.006168 0.862444 -0.506115
vn 0.006168 0.862444 -0.506115
vn 0.006168 0.862444 -0.506115
vn -0.349626 0.889775 -0.293363
vn -0.349626 0.889775 -0.293363
vn -0.349626 0.889775 -0.293363
vn -0.349626 0.889775 -0.293363
vn 0.045062 0.784509 -0.618478
vn 0.045062 0.784509 -0.618479
vn 0.045062 0.784509 -0.618478
vn -0.484224 0.805160 -0.342411
vn -0.484224 0.805160 -0.342411
vn -0.484224 0.805160 -0.342411
vn 0.005281 0.773367 -0.633937
vn 0.005281 0.773367 -0.633937
vn 0.005281 0.773367 -0.633937
vn 0.005281 0.773367 -0.633937
vn -0.478086 0.805426 -0.350318
vn -0.478086 0.805426 -0.350318
vn -0.478086 0.805426 -0.350318
vn -0.478086 0.805426 -0.350318
vn -0.703227 -0.104406 -0.703258
vn -0.703227 -0.104406 -0.703258
vn -0.705857 -0.059161 -0.705880
vn -0.705936 -0.057247 -0.705958
vn -0.703227 0.104406 0.703258
vn -0.703227 0.104406 0.703258
vn -0.705848 0.059162 0.705888
vn -0.705927 0.057248 0.705967
vn 0.703258 0.104401 0.703227
vn 0.703258 0.104401 0.703227
vn 0.705958 0.057245 0.705936
vn 0.705880 0.059160 0.705857
vn 0.703258 -0.104401 -0.703227
vn 0.703258 -0.104401 -0.703227
vn 0.705968 -0.057245 -0.705927
vn 0.705889 -0.059159 -0.705848
vn 0.000000 1.000000 0.000000
vn 0.000000 1.000000 0.000000
vn 0.000000 1.000000 0.000000
vn 0.000000 1.000000 0.000000
vn 0.702316 0.116489 -0.702269
vn 0.701606 0.124747 -0.701561
vn 0.702300 -0.116492 0.702285
vn 0.701592 -0.124750 0.701574
vn -0.701560 -0.124755 0.701605
vn -0.702269 -0.116497 0.702316
vn -0.701574 0.124753 -0.701592
vn -0.702285 0.116495 -0.702300
vn 0.696529 0.172447 -0.696498
vn 0.696529 0.172448 -0.696498
vn 0.696529 -0.172448 0.696498
vn 0.696529 -0.172448 0.696498
vn -0.696497 -0.172455 0.696528
vn -0.696497 -0.172455 0.696528
vn -0.696497 0.172455 -0.696528
vn -0.696497 0.172455 -0.696528
vn 0.289292 0.914557 0.282657
vn 0.289292 0.914557 0.282657
vn 0.289292 0.914557 0.282657
vn 0.289292 0.914558 0.282657
vn 0.273653 0.945107 -0.178569
vn 0.273653 0.945107 -0.178569
vn 0.273653 0.945107 -0.178569
vn 0.273653 0.945107 -0.178569
vn 0.653223 0.733634 -0.187299
vn 0.653223 0.733634 -0.187299
vn 0.653223 0.733634 -0.187299
vn 0.653223 0.733634 -0.187299
vn 0.675428 0.701961 0.225938
vn 0.675428 0.701961 0.225938
vn 0.675428 0.701961 0.225938
vn 0.675428 0.701961 0.225938
vn 0.462427 0.884050 -0.067950
vn 0.462427 0.884050 -0.067950
vn 0.462427 0.884050 -0.067950
vn 0.462427 0.884050 -0.067950
vn 0.641912 0.764440 -0.059837
vn 0.641912 0.764440 -0.059837
vn 0.641912 0.764440 -0.059837
vn 0.641912 0.764440 -0.059837
vn 0.414753 0.909786 -0.016421
vn 0.414753 0.909786 -0.016421
vn 0.414753 0.909786 -0.016421
vn 0.675305 0.737364 0.016047
vn 0.675305 0.737364 0.016047
vn 0.675305 0.737364 0.016047
vn 0.427241 0.904134 0.002579
vn 0.427241 0.904134 0.002579
vn 0.427241 0.904134 0.002579
vn 0.427241 0.904134 0.002579
vn 0.671376 0.740918 0.017165
vn 0.671376 0.740918 0.017165
vn 0.671376 0.740918 0.017165
vn 0.671376 0.740918 0.017165
vn 0.604624 0.780989 -0.156478
vn 0.604624 0.780989 -0.156478
vn 0.604624 0.780989 -0.156478
vn 0.604624 0.780989 -0.156477
vn 0.632263 0.761920 0.140434
vn 0.632263 0.761920 0.140434
vn 0.632263 0.761920 0.140434
vn 0.632263 0.761920 0.140434
vn 0.531413 0.818407 -0.218657
vn 0.531413 0.818407 -0.218657
vn 0.531413 0.818407 -0.218657
vn 0.548849 0.808082 0.213936
vn 0.548849 0.808082 0.213936
vn 0.548849 0.808082 0.213936
vn 0.514415 0.834678 -0.196697
vn 0.514415 0.834678 -0.196697
vn 0.514415 0.834678 -0.196697
vn 0.514415 0.834678 -0.196697
vn 0.547507 0.810751 0.207167
vn 0.547507 0.810751 0.207167
vn 0.547507 0.810751 0.207167
vn 0.547507 0.810751 0.207167
vn 0.682780 0.725414 0.087098
vn 0.682780 0.725414 0.087098
vn 0.682780 0.725414 0.087098
vn 0.682780 0.725414 0.087098
vn 0.409999 0.905780 0.107066
vn 0.409999 0.905780 0.107066
vn 0.409999 0.905780 0.107066
vn 0.409999 0.905780 0.107066
vn 0.736777 0.676135 0.001153
vn 0.736777 0.676135 0.001153
vn 0.736777 0.676135 0.001153
vn 0.342656 0.939460 -0.001133
vn 0.342656 0.939460 -0.001133
vn 0.342656 0.939460 -0.001133
vn 0.720767 0.692712 -0.025409
vn 0.720767 0.692712 -0.025409
vn 0.720767 0.692712 -0.025409
vn 0.720767 0.692712 -0.025409
vn 0.349858 0.936796 -0.003591
vn 0.349858 0.936796 -0.003591
vn 0.349858 0.936796 -0.003591
vn 0.349858 0.936796 -0.003591
vn 0.456473 0.862444 0.218685
vn 0.456473 0.862444 0.218685
vn 0.456473 0.862444 0.218685
vn 0.456473 0.862444 0.218685
vn 0.413297 0.889777 -0.193606
vn 0.413297 0.889777 -0.193606
vn 0.413297 0.889777 -0.193606
vn 0.413297 0.889777 -0.193606
vn 0.542023 0.784501 0.301280
vn 0.542023 0.784501 0.301280
vn 0.542023 0.784501 0.301280
vn 0.514462 0.805153 -0.295054
vn 0.514462 0.805153 -0.295054
vn 0.514462 0.805153 -0.295054
vn 0.572781 0.773369 0.271704
vn 0.572781 0.773369 0.271704
vn 0.572781 0.773369 0.271704
vn 0.572781 0.773369 0.271704
vn 0.519042 0.805427 -0.286153
vn 0.519042 0.805427 -0.286153
vn 0.519042 0.805427 -0.286153
vn 0.519042 0.805427 -0.286153
s off
g polySurface53
usemtl lambert4SG
f 8/1/1 9/2/2 4/3/3 2/4/4
f 4/3/5 9/2/6 10/5/7 3/6/8
f 1/7/9 6/8/10 5/9/11
f 7/10/12 6/8/13 1/7/14
f 5/9/15 6/8/16 9/2/17 8/1/18
f 10/5/19 9/2/20 6/8/21 7/10/22
f 18/11/23 19/12/24 14/13/25 12/14/26
f 14/13/27 19/12/28 20/15/29 13/16/30
f 11/17/31 16/18/32 15/19/33
f 17/20/34 16/18/35 11/17/36
f 15/19/37 16/18/38 19/12/39 18/11/40
f 20/15/41 19/12/42 16/18/43 17/20/44
f 28/21/45 29/22/46 24/23/47 22/24/48
f 24/23/49 29/22/50 30/25/51 23/26/52
f 21/27/53 26/28/54 25/29/55
f 27/30/56 26/28/57 21/27/58
f 25/29/59 26/28/60 29/22/61 28/21/62
f 30/25/63 29/22/64 26/28/65 27/30/66
s 1
f 31/31/67 32/32/68 42/33/69 39/34/70
s 2
f 32/32/71 33/35/72 41/36/73 42/33/74
s 3
f 33/35/75 34/37/76 40/38/77 41/36/78
s 4
f 34/37/79 31/39/80 39/40/81 40/38/82
s off
f 35/41/83 36/42/84 37/43/85 38/44/86
s 4
f 40/38/82 39/40/81 43/45/87 44/46/88
s 3
f 41/36/78 40/38/77 44/46/89 45/47/90
s 2
f 42/33/74 41/36/73 45/47/91 46/48/92
s 1
f 39/34/70 42/33/69 46/48/93 43/49/94
s 4
f 44/46/88 43/45/87 35/50/95 38/51/96
s 3
f 45/47/90 44/46/89 38/51/97 37/52/98
s 2
f 46/48/92 45/47/91 37/52/99 36/53/100
s 1
f 43/49/94 46/48/93 36/53/101 35/54/102
s off
usemtl lambert15SG
f 53/55/103 54/56/104 50/57/105 48/58/106
f 50/57/107 54/56/108 55/59/109 49/60/110
f 54/56/111 47/61/112 52/62/113 55/59/114
f 54/56/115 53/55/116 51/63/117 47/61/118
usemtl lambert14SG
f 63/64/119 64/65/120 59/66/121 57/67/122
f 59/66/123 64/65/124 65/68/125 58/69/126
f 56/70/127 61/71/128 60/72/129
f 62/73/130 61/71/131 56/70/132
f 60/72/133 61/71/134 64/65/135 63/64/136
f 65/68/137 64/65/138 61/71/139 62/73/140
f 73/74/141 74/75/142 69/76/143 67/77/144
f 69/76/145 74/75/146 75/78/147 68/79/148
f 66/80/149 71/81/150 70/82/151
f 72/83/152 71/81/153 66/80/154
f 70/82/155 71/81/156 74/75/157 73/74/158
f 75/78/159 74/75/160 71/81/161 72/83/162
f 83/84/163 84/85/164 79/86/165 77/87/166
f 79/86/167 84/85/168 85/88/169 78/89/170
f 76/90/171 81/91/172 80/92/173
f 82/93/174 81/91/175 76/90/176
f 80/92/177 81/91/178 84/85/179 83/84/180
f 85/88/181 84/85/182 81/91/183 82/93/184
f 93/94/185 94/95/186 89/96/187 87/97/188
f 89/96/189 94/95/190 95/98/191 88/99/192
f 86/100/193 91/101/194 90/102/195
f 92/103/196 91/101/197 86/100/198
f 90/102/199 91/101/200 94/95/201 93/94/202
f 95/98/203 94/95/204 91/101/205 92/103/206
s 5
usemtl lambert4SG
f 96/104/207 97/105/208 107/106/209 104/107/210
s 6
f 97/105/211 98/108/212 106/109/213 107/106/214
s 7
f 98/108/215 99/110/216 105/111/217 106/109/218
s 8
f 99/110/219 96/112/220 104/113/221 105/111/222
s off
f 100/114/223 101/115/224 102/116/225 103/117/226
s 8
f 105/111/222 104/113/221 108/118/227 109/119/228
s 7
f 106/109/218 105/111/217 109/119/229 110/120/230
s 6
f 107/106/214 106/109/213 110/120/231 111/121/232
s 5
f 104/107/210 107/106/209 111/121/233 108/122/234
s 8
f 109/119/228 108/118/227 100/123/235 103/124/236
s 7
f 110/120/230 109/119/229 103/124/237 102/125/238
s 6
f 111/121/232 110/120/231 102/125/239 101/126/240
s 5
f 108/122/234 111/121/233 101/126/241 100/127/242
s off
usemtl lambert15SG
f 118/128/243 119/129/244 115/130/245 113/131/246
f 115/130/247 119/129/248 120/132/249 114/133/250
f 119/129/251 112/134/252 117/135/253 120/132/254
f 119/129/255 118/128/256 116/136/257 112/134/258
usemtl lambert14SG
f 128/137/259 129/138/260 124/139/261 122/140/262
f 124/139/263 129/138/264 130/141/265 123/142/266
f 121/143/267 126/144/268 125/145/269
f 127/146/270 126/144/271 121/143/272
f 125/145/273 126/144/274 129/138/275 128/137/276
f 130/141/277 129/138/278 126/144/279 127/146/280
f 138/147/281 139/148/282 134/149/283 132/150/284
f 134/149/285 139/148/286 140/151/287 133/152/288
f 131/153/289 136/154/290 135/155/291
f 137/156/292 136/154/293 131/153/294
f 135/155/295 136/154/296 139/148/297 138/147/298
f 140/151/299 139/148/300 136/154/301 137/156/302
f 148/157/303 149/158/304 144/159/305 142/160/306
f 144/159/307 149/158/308 150/161/309 143/162/310
f 141/163/311 146/164/312 145/165/313
f 147/166/314 146/164/315 141/163/316
f 145/165/317 146/164/318 149/158/319 148/157/320
f 150/161/321 149/158/322 146/164/323 147/166/324
f 158/167/325 159/168/326 154/169/327 152/170/328
f 154/169/329 159/168/330 160/171/331 153/172/332
f 151/173/333 156/174/334 155/175/335
f 157/176/336 156/174/337 151/173/338
f 155/175/339 156/174/340 159/168/341 158/167/342
f 160/171/343 159/168/344 156/174/345 157/176/346
