# This file uses centimeters as units for non-parametric coordinates.

mtllib log2.mtl
g default
v 0.654049 1.478094 0.379465
v 0.312192 1.478094 0.521067
v -0.029664 1.478094 0.379465
v -0.171265 1.478094 0.037610
v -0.029664 1.478094 -0.304247
v 0.312192 1.478094 -0.445848
v 0.654049 1.478094 -0.304247
v 0.795650 1.478094 0.037610
v 0.750428 0.777252 0.475846
v -0.126044 0.777252 -0.400627
v 0.312192 0.777252 -0.582151
v 0.750429 0.777252 -0.400627
v 0.913150 0.186073 0.791797
v 0.210864 0.086603 0.999832
v -0.291378 0.107139 0.791796
v -0.640866 0.121896 0.148103
v -0.528064 0.103818 -0.776026
v -0.386610 0.124862 -0.917477
v 0.183951 0.112473 -1.202744
v 0.234065 -0.030757 -1.313604
v 1.359653 0.137544 -0.924609
v 1.054601 0.120728 -0.554182
v 1.542718 0.163862 -0.059270
v 1.054601 0.143716 0.650344
v 0.728582 1.856009 0.462182
v 0.317978 1.524088 0.632260
v -0.104198 1.524088 0.462182
v -0.112380 1.591636 0.454000
v -0.282458 1.591636 0.031824
v -0.112380 1.856009 -0.378781
v -0.104198 1.856009 -0.386963
v 0.306406 1.856009 -0.557041
v 0.501866 1.856009 -0.430867
v 0.728582 1.994359 -0.386963
v 0.780394 1.891983 -0.162346
v 0.958007 1.856009 0.043395
v 0.736765 1.856009 0.454000
v 0.313089 0.806402 0.771913
v 0.829570 0.805086 0.543689
v -0.206852 0.806253 0.557085
v -0.421532 0.808590 0.038665
v -0.198543 0.815434 -0.474586
v 0.310673 0.811040 -0.687449
v 0.825194 0.806322 -0.472143
v 1.048240 0.798416 0.037320
v 0.733401 1.272571 0.454512
v 0.316064 1.272161 0.635590
v -0.101525 1.256701 0.450207
v -0.286748 1.276096 0.034948
v -0.102953 1.275968 -0.384037
v 0.309737 1.282983 -0.554728
v 0.737053 1.287580 -0.387295
v 0.902667 1.280914 0.042537
v 0.205532 0.130836 1.121116
v 0.970037 0.226360 0.917256
v -0.382595 0.153819 0.886956
v -0.760118 0.169525 0.158207
v -0.651686 0.153896 -0.829028
v 0.131508 0.155121 -1.329354
v -0.439054 0.167510 -1.044087
v 1.408406 0.176950 -1.053718
v 0.282820 0.008649 -1.442714
v 1.676782 0.193112 -0.061904
v 1.187417 0.151919 -0.598750
v 1.189912 0.171025 0.689644
v 0.783539 1.825388 0.562247
v 0.325183 1.484039 0.731989
v -0.144744 1.474612 0.561574
v -0.215558 1.552218 0.496090
v -0.385114 1.557729 0.026728
v -0.214514 1.827614 -0.431063
v -0.148643 1.834044 -0.494262
v 0.261962 1.834044 -0.664340
v 0.541400 1.841645 -0.541327
v 0.803493 1.980209 -0.462280
v 0.890677 1.878047 -0.202519
v 1.061757 1.829476 0.093424
v 0.840514 1.829476 0.504028
v 0.307602 1.593463 0.044368
vt 0.375000 0.312500
vt 0.406250 0.312500
vt 0.437500 0.312500
vt 0.468750 0.312500
vt 0.500000 0.312500
vt 0.531250 0.312500
vt 0.562500 0.312500
vt 0.593750 0.312500
vt 0.625000 0.312500
vt 0.375000 0.688440
vt 0.406250 0.688440
vt 0.437500 0.688440
vt 0.468750 0.688440
vt 0.500000 0.688440
vt 0.531250 0.688440
vt 0.562500 0.688440
vt 0.593750 0.688440
vt 0.625000 0.688440
vt 1.000000 0.000000
vt 1.314938 0.976558
vt 0.000000 1.000000
vt 0.000000 0.000000
vt 1.000000 0.000000
vt 0.989037 0.999973
vt 0.014904 0.999978
vt 0.000000 0.000000
vt 1.000000 0.000000
vt 0.985096 0.999978
vt -0.316318 0.976556
vt 0.000000 0.000000
vt 1.000000 1.000000
vt -0.314939 0.976558
vt 0.000000 0.000000
vt 1.000000 0.000000
vt 1.000000 1.000000
vt 0.000000 1.000000
vt 0.000000 0.000000
vt 1.000000 0.000000
vt 1.000000 1.000000
vt 0.000000 1.000000
vt 0.000000 0.000000
vt 1.000000 0.000000
vt 0.985096 0.999978
vt 0.000000 1.000000
vt 0.000000 0.000000
vt 1.000000 0.000000
vt 1.000000 1.000000
vt -0.314935 0.976558
vt 0.000000 0.000000
vt 1.000000 0.000000
vt 1.000000 1.000000
vt -0.041097 0.999967
vt 0.000000 0.000000
vt 1.000000 0.000000
vt 1.067128 0.998510
vt 0.000000 1.000000
vt 0.000000 0.000000
vt 1.000000 0.000000
vt 1.000000 1.000000
vt -0.067128 0.998510
vt 0.000000 0.000000
vt 1.000000 0.000000
vt 1.041097 0.999967
vt 0.000000 1.000000
vt 0.000000 0.000000
vt 1.000000 0.000000
vt 1.000000 1.000000
vt 0.000000 1.000000
vt 0.000000 0.000000
vt 1.000000 0.000000
vt 1.000000 1.000000
vt -0.041097 0.999967
vt 0.000000 0.000000
vt 1.000000 0.000000
vt 1.067127 0.998510
vt 0.000000 1.000000
vt 0.000000 0.000000
vt 1.000000 0.000000
vt 1.000000 1.000000
vt 0.000000 1.000000
vt 0.000000 0.000000
vt 1.000000 0.000000
vt 1.000000 1.000000
vt -0.041097 0.999967
vt 0.000000 0.000000
vt 1.000000 0.000000
vt 1.067128 0.998510
vt 0.000000 1.000000
vt 0.000000 0.000000
vt 1.000000 0.000000
vt 1.000000 1.000000
vt -0.067128 0.998510
vt 0.000000 0.000000
vt 1.000000 0.000000
vt 1.041097 0.999967
vt 0.000000 1.000000
vt 0.000000 0.000000
vt 1.000000 0.000000
vt 1.000000 1.000000
vt 0.000000 1.000000
vt 0.000000 0.000000
vt 1.000000 0.000000
vt 1.000000 1.000000
vt -0.041097 0.999967
vt 0.000000 0.000000
vt 1.000000 0.000000
vt 1.067127 0.998510
vt 0.000000 1.000000
vt 0.000000 0.000000
vt 1.000000 0.000000
vt 1.000000 1.000000
vt 0.000000 1.000000
vt 1.314938 0.976558
vt 0.000000 1.000000
vt 0.000000 0.000000
vt 0.989037 0.999973
vt 0.014904 0.999978
vt 0.985096 0.999978
vt -0.316318 0.976556
vt 1.000000 0.000000
vt 1.000000 1.000000
vt -0.314939 0.976558
vt 1.000000 0.000000
vt 1.000000 1.000000
vt 0.000000 1.000000
vt 0.000000 0.000000
vt 1.000000 0.000000
vt 1.000000 1.000000
vt 0.000000 1.000000
vt 0.000000 0.000000
vt 0.985096 0.999978
vt 0.000000 1.000000
vt 0.000000 0.000000
vt 1.000000 0.000000
vt 1.000000 1.000000
vt -0.314935 0.976558
vt 1.000000 0.000000
vt 1.000000 1.000000
vt -0.041097 0.999967
vt 1.067128 0.998510
vt 0.000000 1.000000
vt 0.000000 0.000000
vt 1.000000 0.000000
vt 1.000000 1.000000
vt -0.067128 0.998510
vt 1.041097 0.999967
vt 0.000000 1.000000
vt 0.000000 0.000000
vt 1.000000 0.000000
vt 1.000000 1.000000
vt 0.000000 1.000000
vt 0.000000 0.000000
vt 1.000000 0.000000
vt 1.000000 1.000000
vt -0.041097 0.999967
vt 1.067127 0.998510
vt 0.000000 1.000000
vt 0.000000 0.000000
vt 1.000000 0.000000
vt 1.000000 1.000000
vt 0.000000 1.000000
vt 0.000000 0.000000
vt 0.000000 0.000000
vt 1.000000 0.000000
vt 0.500000 1.000000
vt 0.000000 0.000000
vt 1.000000 0.000000
vt 0.500000 1.000000
vt 0.000000 0.000000
vt 1.000000 0.000000
vt 0.500000 1.000000
vt 0.000000 0.000000
vt 1.000000 0.000000
vt 0.500000 1.000000
vt 0.000000 0.000000
vt 1.000000 0.000000
vt 0.500000 1.000000
vt 0.000000 0.000000
vt 1.000000 0.000000
vt 0.500000 1.000000
vt 0.000000 0.000000
vt 1.000000 0.000000
vt 0.500000 1.000000
vt 0.000000 0.000000
vt 1.000000 0.000000
vt 0.500000 1.000000
vn 0.288872 0.425449 0.857640
vn 0.295366 0.415299 0.860399
vn 0.426794 0.037355 0.903577
vn 0.427924 0.028456 0.903367
vn -0.341599 0.420230 0.840664
vn -0.341816 0.419546 0.840918
vn -0.384676 0.040196 0.922176
vn -0.385535 0.074864 0.919651
vn -0.829990 0.400813 0.387899
vn -0.826530 0.407877 0.387923
vn -0.920091 0.064630 0.386336
vn -0.922246 0.033014 0.385191
vn -0.850668 0.467476 -0.240481
vn -0.848329 0.474452 -0.235016
vn -0.908081 0.027484 -0.417892
vn -0.908150 0.034374 -0.417233
vn -0.321932 0.590479 -0.740064
vn -0.323355 0.584643 -0.744066
vn -0.382718 0.025692 -0.923508
vn -0.382722 0.021040 -0.923624
vn 0.218817 0.638402 -0.737944
vn 0.219511 0.637036 -0.738918
vn 0.368596 0.098139 -0.924395
vn 0.368274 0.068385 -0.927199
vn 0.739302 0.505954 -0.444346
vn 0.750056 0.492815 -0.441078
vn 0.926327 0.071659 -0.369843
vn 0.923077 0.104339 -0.370192
vn 0.773335 0.490728 0.401421
vn 0.761620 0.508041 0.402280
vn 0.912776 0.002974 0.408450
vn 0.912911 0.008052 0.408079
vn 0.246358 0.488732 0.836928
vn 0.246358 0.488732 0.836928
vn -0.319910 0.484567 0.814158
vn -0.319910 0.484567 0.814158
vn -0.802174 0.454292 0.387474
vn -0.802174 0.454292 0.387474
vn -0.824199 0.535168 -0.185179
vn -0.824199 0.535168 -0.185179
vn -0.290224 0.699835 -0.652688
vn -0.290224 0.699835 -0.652688
vn 0.181003 0.707785 -0.682846
vn 0.181003 0.707785 -0.682846
vn 0.653857 0.597481 -0.464206
vn 0.653857 0.597481 -0.464206
vn 0.707566 0.579795 0.403966
vn 0.707566 0.579795 0.403966
vn 0.445481 -0.262972 0.855799
vn 0.445481 -0.262972 0.855799
vn -0.325052 -0.432375 0.841067
vn -0.325052 -0.432375 0.841067
vn -0.874743 -0.344176 0.341126
vn -0.874743 -0.344176 0.341126
vn -0.869477 -0.247393 -0.427560
vn -0.869477 -0.247393 -0.427560
vn -0.372340 -0.210534 -0.903902
vn -0.372340 -0.210534 -0.903902
vn 0.357725 -0.130730 -0.924631
vn 0.357725 -0.130730 -0.924631
vn 0.924453 -0.128139 -0.359119
vn 0.924453 -0.128139 -0.359119
vn 0.876009 -0.248491 0.413353
vn 0.876009 -0.248491 0.413353
vn -0.501873 0.436627 -0.746646
vn -0.501873 0.436627 -0.746646
vn -0.501873 0.436627 -0.746646
vn -0.501873 0.436627 -0.746646
vn 0.154316 0.912737 -0.378282
vn 0.154316 0.912737 -0.378282
vn 0.154316 0.912737 -0.378282
vn 0.154316 0.912737 -0.378282
vn 0.686520 0.671013 -0.280058
vn 0.686520 0.671013 -0.280058
vn 0.686520 0.671013 -0.280058
vn 0.686520 0.671013 -0.280058
vn 0.794426 0.389592 0.465945
vn 0.794426 0.389592 0.465945
vn 0.794426 0.389592 0.465945
vn 0.794426 0.389592 0.465945
vn 0.368730 0.267565 0.890195
vn 0.368730 0.267565 0.890195
vn 0.368730 0.267565 0.890195
vn 0.368730 0.267565 0.890195
vn -0.343015 0.171313 0.923576
vn -0.343015 0.171313 0.923576
vn -0.343015 0.171313 0.923576
vn -0.343015 0.171313 0.923576
vn -0.924152 0.163784 0.345134
vn -0.924152 0.163784 0.345134
vn -0.924152 0.163784 0.345134
vn -0.924152 0.163784 0.345134
vn -0.853263 0.320393 -0.411450
vn -0.853263 0.320393 -0.411450
vn -0.853263 0.320393 -0.411450
vn -0.853263 0.320392 -0.411450
vn 0.203130 -0.938547 0.279049
vn 0.203130 -0.938547 0.279049
vn 0.203130 -0.938547 0.279049
vn 0.203130 -0.938547 0.279049
vn -0.166193 -0.933432 0.317939
vn -0.166193 -0.933432 0.317939
vn -0.166193 -0.933432 0.317939
vn -0.166193 -0.933432 0.317939
vn -0.355822 -0.932698 0.058863
vn -0.336954 -0.928188 0.157889
vn -0.336954 -0.928188 0.157889
vn -0.357720 -0.932611 0.047671
vn -0.369090 -0.929020 -0.026338
vn -0.369090 -0.929020 -0.026338
vn 0.973392 -0.007647 -0.229018
vn 0.973392 -0.007647 -0.229018
vn 0.973392 -0.007647 -0.229018
vn 0.973392 -0.007647 -0.229018
vn -0.150277 -0.954080 -0.259130
vn -0.150277 -0.954080 -0.259130
vn -0.150276 -0.954080 -0.259130
vn -0.150277 -0.954080 -0.259130
vn -0.860922 -0.087009 0.501241
vn -0.860922 -0.087009 0.501241
vn -0.860922 -0.087009 0.501241
vn -0.860922 -0.087009 0.501241
vn 0.786264 0.244404 0.567499
vn 0.786264 0.244404 0.567499
vn 0.786264 0.244404 0.567499
vn 0.786264 0.244404 0.567499
vn 0.215138 -0.953768 -0.209864
vn 0.215138 -0.953768 -0.209864
vn 0.215138 -0.953768 -0.209864
vn 0.215138 -0.953768 -0.209864
vn -0.972229 0.190052 -0.136567
vn -0.972229 0.190052 -0.136567
vn -0.972229 0.190052 -0.136567
vn -0.972229 0.190052 -0.136567
vn 0.200850 -0.973344 -0.110731
vn 0.200850 -0.973344 -0.110731
vn 0.200850 -0.973344 -0.110731
vn 0.200850 -0.973344 -0.110731
vn -0.475387 -0.053992 -0.878118
vn -0.475387 -0.053992 -0.878118
vn -0.475387 -0.053992 -0.878118
vn -0.475387 -0.053992 -0.878119
vn -0.445447 -0.007184 0.895279
vn -0.445447 -0.007184 0.895279
vn -0.445447 -0.007184 0.895279
vn -0.445447 -0.007184 0.895279
vn 0.191468 -0.976439 0.099537
vn 0.191468 -0.976439 0.099537
vn 0.191468 -0.976439 0.099537
vn 0.191467 -0.976439 0.099537
vn 0.802726 0.014465 -0.596173
vn 0.802726 0.014465 -0.596173
vn 0.802726 0.014465 -0.596172
vn 0.802726 0.014465 -0.596173
vn -0.448154 0.789789 0.418796
vn -0.320549 0.854899 0.407916
vn -0.314897 0.857311 0.407257
vn -0.448154 0.789790 0.418797
vn -0.155886 0.910407 0.383221
vn -0.155886 0.910407 0.383221
vn -0.845388 0.015459 -0.533929
vn -0.845388 0.015459 -0.533929
vn -0.845388 0.015459 -0.533929
vn -0.845388 0.015459 -0.533929
vn 0.533633 0.007713 0.845681
vn 0.533633 0.007713 0.845681
vn 0.533633 0.007713 0.845681
vn 0.533633 0.007713 0.845681
vn -0.312922 0.941513 0.125029
vn -0.343907 0.901390 0.263104
vn -0.343174 0.902720 0.259478
vn -0.312922 0.941514 0.125029
vn -0.365001 0.850030 0.379768
vn -0.365001 0.850030 0.379768
vn 0.587137 0.016876 -0.809312
vn 0.587137 0.016876 -0.809312
vn 0.587137 0.016876 -0.809312
vn 0.587137 0.016876 -0.809312
vn -0.846828 0.000865 0.531866
vn -0.846828 0.000865 0.531865
vn -0.846828 0.000865 0.531865
vn -0.846829 0.000865 0.531865
vn -0.071118 0.982580 -0.171695
vn -0.071119 0.982580 -0.171695
vn -0.071118 0.982580 -0.171695
vn -0.071119 0.982580 -0.171695
vn 0.976246 0.004802 -0.216612
vn 0.976246 0.004802 -0.216612
vn 0.976246 0.004802 -0.216612
vn 0.976246 0.004802 -0.216612
vn -0.790657 0.370466 -0.487459
vn -0.790657 0.370466 -0.487459
vn -0.790657 0.370466 -0.487459
vn -0.790657 0.370466 -0.487459
vn -0.386547 0.845702 -0.367925
vn -0.386547 0.845703 -0.367925
vn -0.386547 0.845703 -0.367925
vn -0.386547 0.845703 -0.367925
vn 0.317758 0.902730 0.290014
vn 0.317758 0.902730 0.290015
vn 0.317758 0.902730 0.290015
vn 0.317758 0.902730 0.290014
vn 0.482584 0.363705 0.796763
vn 0.482584 0.363705 0.796763
vn 0.482584 0.363705 0.796763
vn 0.482584 0.363705 0.796763
vn 0.231499 -0.020828 -0.972612
vn 0.231499 -0.020828 -0.972612
vn 0.231499 -0.020828 -0.972612
vn 0.231499 -0.020828 -0.972612
vn 0.197807 0.974429 0.106583
vn 0.197807 0.974429 0.106583
vn 0.197807 0.974429 0.106583
vn 0.197807 0.974429 0.106583
vn -0.560625 0.003960 0.828060
vn -0.560625 0.003960 0.828060
vn -0.560625 0.003960 0.828060
vn -0.560625 0.003960 0.828060
vn 0.000763 0.971942 0.235220
vn 0.165534 0.972525 0.163687
vn -0.001127 0.999998 0.001660
vn -0.166929 0.971798 0.166566
vn -0.234205 0.972187 -0.001114
vn -0.162712 0.972858 -0.164538
vn 0.000724 0.973408 -0.229079
vn 0.161422 0.973538 -0.161762
vn 0.230035 0.973182 -0.001075
s 1
g pCylinder10
usemtl lambert9SG
f 38/11/1 39/10/2 46/1/3 47/2/4
s 2
f 40/12/5 38/11/6 47/2/7 48/3/8
s 3
f 41/13/9 40/12/10 48/3/11 49/4/12
s 4
f 42/14/13 41/13/14 49/4/15 50/5/16
s 5
f 43/15/17 42/14/18 50/5/19 51/6/20
s 6
f 44/16/21 43/15/22 51/6/23 52/7/24
s 7
f 45/17/25 44/16/26 52/7/27 53/8/28
s 8
f 39/18/29 45/17/30 53/8/31 46/9/32
s 1
f 39/115/2 38/19/1 54/113/33 55/114/34
s 2
f 38/22/6 40/23/5 56/116/35 54/117/36
s 3
f 40/26/10 41/27/9 57/118/37 56/119/38
s 4
f 41/30/14 42/120/13 58/121/39 57/122/40
s 5
f 42/126/18 43/123/17 59/124/41 60/125/42
s 6
f 43/130/22 44/127/21 61/128/43 62/129/44
s 7
f 44/133/26 45/42/25 63/131/45 64/132/46
s 8
f 45/45/30 39/134/29 65/135/47 63/136/48
s 1
f 47/49/4 46/137/3 66/138/49 67/139/50
s 2
f 48/142/8 47/54/7 67/140/51 68/141/52
s 3
f 49/57/12 48/143/11 69/144/53 70/145/54
s 4
f 50/148/16 49/62/15 70/146/55 71/147/56
s 5
f 51/152/20 50/149/19 72/150/57 73/151/58
s 6
f 52/69/24 51/153/23 74/154/59 75/155/60
s 7
f 53/158/28 52/74/27 75/156/61 76/157/62
s 8
f 46/162/32 53/159/31 77/160/63 78/161/64
s off
f 2/81/65 26/84/66 25/83/67 1/82/68
f 3/85/69 27/88/70 26/87/71 2/86/72
f 4/89/73 29/92/74 28/91/75 3/90/76
f 5/93/77 30/96/78 29/95/79 4/94/80
f 6/97/81 32/100/82 31/99/83 5/98/84
f 7/101/85 34/104/86 33/103/87 6/102/88
f 8/105/89 35/108/90 34/107/91 7/106/92
f 1/109/93 37/112/94 36/111/95 8/110/96
usemtl lambert10SG
f 14/20/97 13/21/98 55/114/99 54/113/100
f 15/24/101 14/25/102 54/117/103 56/116/104
s 9
f 16/28/105 15/29/106 56/119/107 57/118/108
f 17/31/109 16/32/105 57/122/108 58/121/110
s off
f 11/34/111 19/35/112 59/124/113 43/123/114
f 19/35/115 18/36/116 60/125/117 59/124/118
f 18/36/119 10/33/120 42/126/121 60/125/122
f 12/38/123 21/39/124 61/128/125 44/127/126
f 21/39/127 20/40/128 62/129/129 61/128/130
f 20/40/131 11/37/132 43/130/133 62/129/134
f 23/43/135 22/44/136 64/132/137 63/131/138
f 22/44/139 12/41/140 44/133/141 64/132/142
f 9/46/143 24/47/144 65/135/145 39/134/146
f 24/47/147 23/48/148 63/136/149 65/135/150
f 1/50/151 25/51/152 66/138/153 46/137/154
s 10
f 25/51/155 26/52/156 67/139/157 66/138/158
f 26/55/156 27/56/159 68/141/160 67/140/157
s off
f 27/56/161 3/53/162 48/142/163 68/141/164
f 3/58/165 28/59/166 69/144/167 48/143/168
s 11
f 28/59/169 29/60/170 70/145/171 69/144/172
f 29/63/170 30/64/173 71/147/174 70/146/171
s off
f 30/64/175 5/61/176 50/148/177 71/147/178
f 5/66/179 31/67/180 72/150/181 50/149/182
f 31/67/183 32/68/184 73/151/185 72/150/186
f 32/68/187 6/65/188 51/152/189 73/151/190
f 6/70/191 33/71/192 74/154/193 51/153/194
f 33/71/195 34/72/196 75/155/197 74/154/198
f 34/75/199 35/76/200 76/157/201 75/156/202
f 35/76/203 8/73/204 53/158/205 76/157/206
f 8/78/207 36/79/208 77/160/209 53/159/210
f 36/79/211 37/80/212 78/161/213 77/160/214
f 37/80/215 1/77/216 46/162/217 78/161/218
s 12
f 2/163/219 1/164/220 79/165/221
f 3/166/222 2/167/219 79/168/221
f 4/169/223 3/170/222 79/171/221
f 5/172/224 4/173/223 79/174/221
f 6/175/225 5/176/224 79/177/221
f 7/178/226 6/179/225 79/180/221
f 8/181/227 7/182/226 79/183/221
f 1/184/220 8/185/227 79/186/221
