# This file uses centimeters as units for non-parametric coordinates.

mtllib stone1.mtl
g default
v 1.501487 -0.888402 -1.506735
v -0.397774 -0.779366 -1.901277
v -3.195193 -0.230825 -1.547448
v -3.408395 -0.412212 1.419607
v -0.088856 -1.295238 1.329972
v 1.857671 -0.035240 -1.581805
v -0.586243 0.001052 -2.256018
v -3.830610 0.540450 -2.356244
v -3.570029 1.630920 1.736809
v -0.039517 0.078489 2.056279
v 0.868877 0.941054 -0.870820
v -0.817402 1.131040 -1.880027
v -3.298417 1.752220 -1.741573
v -3.353530 2.825972 1.276771
v -0.636423 1.719602 1.158336
v -0.763083 -1.270880 -0.145858
v -1.622449 2.886225 -0.762823
vt 0.200000 0.250000
vt 0.200000 0.500000
vt 0.000000 0.250000
vt 0.000000 0.500000
vt 0.400000 0.250000
vt 0.400000 0.500000
vt 0.600000 0.250000
vt 0.600000 0.500000
vt 0.800000 0.250000
vt 0.800000 0.500000
vt 1.000000 0.250000
vt 1.000000 0.500000
vt 0.000000 0.750000
vt 0.200000 0.750000
vt 0.400000 0.750000
vt 0.600000 0.750000
vt 0.800000 0.750000
vt 1.000000 0.750000
vt 0.100000 0.000000
vt 0.300000 0.000000
vt 0.500000 0.000000
vt 0.700000 0.000000
vt 0.900000 0.000000
vt 0.100000 1.000000
vt 0.300000 1.000000
vt 0.500000 1.000000
vt 0.700000 1.000000
vt 0.900000 1.000000
vn 0.167998 -0.374018 -0.912078
vn 0.167998 -0.374018 -0.912078
vn 0.167998 -0.374018 -0.912078
vn 0.258395 -0.191197 -0.946930
vn 0.258395 -0.191197 -0.946930
vn 0.258395 -0.191197 -0.946930
vn -0.197710 -0.444812 -0.873529
vn -0.197710 -0.444812 -0.873529
vn -0.197709 -0.444812 -0.873529
vn -0.106559 -0.760047 -0.641072
vn -0.106559 -0.760047 -0.641072
vn -0.106559 -0.760047 -0.641072
vn -0.717923 -0.689779 -0.093756
vn -0.717924 -0.689779 -0.093756
vn -0.717924 -0.689779 -0.093756
vn -0.991884 -0.092081 0.087680
vn -0.991884 -0.092081 0.087680
vn -0.991884 -0.092081 0.087680
vn -0.099187 -0.462314 0.881151
vn -0.099187 -0.462314 0.881151
vn -0.099187 -0.462314 0.881151
vn -0.160105 -0.163791 0.973416
vn -0.160105 -0.163791 0.973416
vn -0.160105 -0.163791 0.973416
vn 0.856858 -0.264688 0.442419
vn 0.856858 -0.264688 0.442419
vn 0.856858 -0.264688 0.442419
vn 0.838741 -0.310823 0.447104
vn 0.838741 -0.310823 0.447104
vn 0.838741 -0.310823 0.447104
vn 0.199373 0.700757 -0.684974
vn 0.199373 0.700757 -0.684974
vn 0.199373 0.700757 -0.684974
vn 0.508195 0.363720 -0.780670
vn 0.508195 0.363720 -0.780670
vn 0.508195 0.363720 -0.780670
vn 0.083914 0.330020 -0.940237
vn 0.083914 0.330020 -0.940237
vn 0.083914 0.330020 -0.940237
vn 0.057751 0.431335 -0.900342
vn 0.057751 0.431335 -0.900342
vn 0.057751 0.431335 -0.900342
vn -0.903453 0.425051 -0.055724
vn -0.903453 0.425051 -0.055724
vn -0.903453 0.425051 -0.055724
vn -0.985928 0.151004 -0.071721
vn -0.985928 0.151004 -0.071721
vn -0.985928 0.151004 -0.071721
vn 0.150658 0.516134 0.843154
vn 0.150658 0.516134 0.843154
vn 0.150658 0.516134 0.843154
vn 0.173369 0.326301 0.929231
vn 0.173369 0.326301 0.929231
vn 0.173369 0.326301 0.929231
vn 0.773625 0.501141 0.387764
vn 0.773625 0.501141 0.387764
vn 0.773625 0.501141 0.387764
vn 0.777936 0.494833 0.387243
vn 0.777936 0.494833 0.387243
vn 0.777936 0.494833 0.387242
vn 0.000698 -0.963002 -0.269493
vn 0.000698 -0.963002 -0.269493
vn 0.000698 -0.963002 -0.269493
vn -0.220274 -0.926448 -0.305243
vn -0.220274 -0.926448 -0.305243
vn -0.220274 -0.926448 -0.305243
vn -0.351405 -0.932602 -0.082264
vn -0.351405 -0.932602 -0.082264
vn -0.351405 -0.932602 -0.082264
vn -0.253267 -0.962233 0.099823
vn -0.253267 -0.962233 0.099823
vn -0.253267 -0.962233 0.099823
vn 0.123448 -0.989682 -0.072730
vn 0.123447 -0.989682 -0.072730
vn 0.123448 -0.989682 -0.072730
vn 0.454076 0.617242 -0.642516
vn 0.454076 0.617242 -0.642516
vn 0.454076 0.617242 -0.642516
vn 0.095847 0.565410 -0.819222
vn 0.095847 0.565410 -0.819222
vn 0.095847 0.565410 -0.819222
vn -0.399601 0.861339 -0.313711
vn -0.399601 0.861339 -0.313711
vn -0.399601 0.861339 -0.313711
vn 0.367569 0.866568 0.337569
vn 0.367569 0.866568 0.337569
vn 0.367569 0.866568 0.337569
vn 0.612028 0.775176 0.156604
vn 0.612028 0.775176 0.156604
vn 0.612028 0.775176 0.156604
s off
g polySurface15 pSphere9
usemtl lambert8SG
f 2/1/1 7/2/2 1/3/3
f 1/3/4 7/2/5 6/4/6
f 2/1/7 3/5/8 7/2/9
f 7/2/10 3/5/11 8/6/12
f 3/5/13 4/7/14 8/6/15
f 8/6/16 4/7/17 9/8/18
f 5/9/19 10/10/20 4/7/21
f 4/7/22 10/10/23 9/8/24
f 5/9/25 1/11/26 10/10/27
f 10/10/28 1/11/29 6/12/30
f 6/4/31 7/2/32 11/13/33
f 11/13/34 7/2/35 12/14/36
f 7/2/37 8/6/38 12/14/39
f 12/14/40 8/6/41 13/15/42
f 8/6/43 9/8/44 13/15/45
f 13/15/46 9/8/47 14/16/48
f 10/10/49 15/17/50 9/8/51
f 9/8/52 15/17/53 14/16/54
f 6/12/55 11/18/56 10/10/57
f 10/10/58 11/18/59 15/17/60
f 2/1/61 1/3/62 16/19/63
f 3/5/64 2/1/65 16/20/66
f 4/7/67 3/5/68 16/21/69
f 5/9/70 4/7/71 16/22/72
f 1/11/73 5/9/74 16/23/75
f 11/13/76 12/14/77 17/24/78
f 12/14/79 13/15/80 17/25/81
f 13/15/82 14/16/83 17/26/84
f 14/16/85 15/17/86 17/27/87
f 15/17/88 11/18/89 17/28/90
